<svg id="svg" version="1.1" width="400" height="225" viewBox="0 0 400 225" xmlns="http://www.w3.org/2000/svg" xmlns:xlink="http://www.w3.org/1999/xlink"><g id="svgg"><path id="path0" d="M201.069 67.864 C 199.021 68.179,197.565 68.709,196.328 69.589 C 195.626 70.089,195.429 70.156,195.350 69.922 C 195.296 69.761,194.925 69.300,194.526 68.898 L 193.800 68.168 176.879 68.173 L 159.959 68.178 159.299 68.757 C 158.512 69.448,157.911 69.497,157.595 68.896 C 157.468 68.655,157.267 68.392,157.148 68.313 C 157.030 68.234,146.291 68.171,133.283 68.172 L 109.632 68.175 109.212 68.658 C 108.674 69.276,107.998 69.271,107.254 68.645 L 106.665 68.150 99.447 68.206 C 91.396 68.268,91.703 68.214,91.086 69.671 C 90.591 70.841,90.703 110.214,91.204 111.024 C 91.748 111.904,92.440 112.210,93.829 112.187 C 95.213 112.163,102.667 111.197,102.986 111.001 C 103.104 110.927,104.041 110.853,105.067 110.835 C 107.011 110.800,111.126 110.277,112.300 109.916 C 112.673 109.801,113.947 109.689,115.132 109.667 C 118.186 109.611,123.009 109.054,123.558 108.694 C 124.072 108.358,124.639 108.311,124.912 108.584 C 125.029 108.701,126.576 108.626,129.102 108.382 C 131.304 108.169,135.235 107.826,137.837 107.620 C 140.439 107.414,142.746 107.151,142.963 107.034 C 143.199 106.908,143.749 106.874,144.324 106.951 C 145.897 107.159,153.116 106.655,153.660 106.299 C 154.031 106.056,154.203 106.043,154.556 106.232 C 155.212 106.583,162.189 106.214,162.988 105.785 C 163.671 105.419,164.258 105.375,164.258 105.689 C 164.258 106.024,173.296 105.830,173.710 105.486 C 173.889 105.337,174.163 105.290,174.363 105.373 C 174.891 105.594,192.554 105.480,193.427 105.250 C 193.841 105.142,194.477 104.754,194.842 104.390 L 195.505 103.727 197.313 104.597 C 202.398 107.045,210.465 105.867,213.792 102.189 L 214.792 101.085 216.331 102.649 C 221.626 108.028,232.579 107.542,236.163 101.768 L 236.459 101.291 236.929 101.866 C 241.714 107.725,251.906 109.320,256.488 104.927 C 257.270 104.176,257.243 104.160,257.604 105.572 C 257.970 107.009,258.691 107.554,260.559 107.809 C 268.697 108.918,269.967 108.895,271.199 107.609 L 271.777 107.006 271.837 102.631 L 271.896 98.256 272.520 98.159 C 275.235 97.740,275.881 97.600,276.678 97.258 C 277.176 97.044,277.829 96.695,278.129 96.482 C 278.428 96.268,278.704 96.094,278.741 96.094 C 278.778 96.094,278.790 98.621,278.766 101.709 C 278.703 110.152,278.260 109.595,285.840 110.624 C 288.740 111.018,292.168 111.467,293.457 111.621 C 294.746 111.776,296.614 112.003,297.607 112.126 C 302.142 112.685,302.323 112.328,302.335 102.793 L 302.344 96.309 301.771 95.762 L 301.198 95.215 301.136 90.003 L 301.074 84.792 301.618 84.223 L 302.163 83.655 302.107 76.578 L 302.051 69.501 301.321 68.832 L 300.592 68.164 290.735 68.164 C 279.296 68.164,279.554 68.116,279.025 70.361 C 278.853 71.094,278.611 71.041,277.535 70.034 C 275.832 68.442,274.085 68.166,265.820 68.187 C 258.229 68.207,258.145 68.229,257.868 70.297 C 257.708 71.491,257.371 71.486,256.096 70.270 C 251.691 66.069,242.441 66.902,237.523 71.944 L 236.667 72.821 234.984 71.156 C 230.061 66.287,221.038 66.325,216.404 71.234 L 215.030 72.690 213.359 71.109 C 210.334 68.245,206.016 67.105,201.069 67.864 M206.020 71.102 C 209.987 71.745,212.419 73.964,213.176 77.629 C 213.582 79.596,213.746 79.511,209.673 79.448 L 206.192 79.395 205.855 78.362 C 205.469 77.176,205.556 77.292,204.746 76.880 C 203.352 76.171,202.207 76.720,201.869 78.258 C 201.629 79.352,202.458 80.005,206.393 81.824 C 212.538 84.664,214.050 86.630,213.831 91.495 C 213.595 96.713,209.771 99.414,202.957 99.174 C 197.053 98.966,194.054 96.489,193.893 91.686 L 193.848 90.332 197.559 90.332 L 201.270 90.332 201.400 91.403 C 201.664 93.561,204.085 94.386,205.502 92.800 C 206.831 91.312,205.859 89.897,202.539 88.492 C 199.653 87.271,197.238 85.774,196.443 84.714 C 191.008 77.469,196.567 69.568,206.020 71.102 M228.027 71.103 C 232.689 71.774,235.841 76.029,235.509 81.203 L 235.449 82.129 231.836 82.057 C 227.711 81.974,227.937 82.085,227.933 80.140 C 227.926 77.185,226.205 75.905,224.512 77.597 C 223.520 78.589,223.440 79.191,223.439 85.632 C 223.437 92.405,223.526 92.844,225.013 93.439 C 227.102 94.275,228.110 93.020,228.120 89.572 L 228.125 88.030 231.784 88.172 C 236.199 88.344,235.818 88.116,235.690 90.506 C 235.340 97.045,231.050 100.698,224.716 99.850 C 219.942 99.211,217.076 96.601,216.090 91.992 C 215.512 89.290,215.560 80.425,216.165 78.048 C 217.541 72.646,221.726 70.196,228.027 71.103 M251.580 71.487 C 256.769 73.221,258.096 76.245,258.094 86.328 C 258.090 97.844,255.424 101.527,247.551 100.894 C 240.052 100.290,236.916 94.941,237.387 83.556 C 237.616 78.037,238.357 75.926,240.953 73.401 C 243.352 71.069,247.885 70.252,251.580 71.487 M172.012 71.556 C 172.041 71.586,172.069 77.756,172.074 85.268 L 172.082 98.926 171.246 99.048 C 170.786 99.116,169.268 99.204,167.871 99.244 L 165.332 99.316 165.286 90.234 C 165.261 85.239,165.239 80.896,165.237 80.583 C 165.229 78.989,164.219 83.473,163.064 90.234 C 162.632 92.759,162.095 95.903,161.870 97.221 C 161.392 100.022,161.759 99.766,158.106 99.847 L 155.568 99.902 155.407 98.730 C 155.144 96.818,154.323 92.285,153.710 89.355 C 153.395 87.852,153.044 86.006,152.930 85.254 C 152.590 83.018,151.888 80.078,151.694 80.078 C 151.594 80.078,151.563 80.408,151.625 80.811 C 151.687 81.213,151.799 85.735,151.875 90.858 L 152.012 100.173 151.543 100.269 C 150.895 100.401,145.054 100.720,144.873 100.633 C 144.792 100.595,144.727 94.020,144.727 86.024 L 144.727 71.484 150.293 71.484 C 153.354 71.484,155.859 71.543,155.859 71.615 C 155.859 71.686,156.259 74.169,156.748 77.132 C 157.514 81.779,158.203 86.426,158.203 86.950 C 158.203 87.038,158.285 87.109,158.385 87.109 C 158.584 87.109,158.693 86.582,159.475 81.836 C 160.197 77.453,161.319 71.829,161.520 71.586 C 161.663 71.414,171.841 71.385,172.012 71.556 M192.090 74.514 L 192.090 77.637 187.695 77.665 L 183.301 77.693 183.301 79.716 L 183.301 81.738 187.354 81.791 L 191.406 81.844 191.406 84.863 L 191.406 87.883 187.354 87.935 L 183.301 87.988 183.277 90.257 L 183.254 92.526 187.769 92.503 L 192.285 92.480 192.285 95.605 L 192.285 98.730 184.082 98.834 C 178.074 98.910,175.827 98.879,175.684 98.716 C 175.557 98.572,175.488 93.729,175.488 85.038 L 175.488 71.582 183.496 71.479 C 187.900 71.423,191.636 71.380,191.797 71.385 C 192.045 71.391,192.090 71.873,192.090 74.514 M273.590 71.798 C 278.134 72.980,280.074 76.512,279.837 83.169 C 279.625 89.095,277.473 91.208,271.484 91.369 L 268.457 91.450 268.512 96.825 L 268.567 102.200 266.559 102.049 C 265.454 101.967,263.760 101.845,262.793 101.780 L 261.035 101.660 260.985 86.719 C 260.957 78.501,260.968 71.689,261.008 71.582 C 261.142 71.231,272.139 71.420,273.590 71.798 M290.869 71.482 L 298.633 71.484 298.633 75.195 C 298.633 78.593,298.604 78.908,298.291 78.924 C 298.103 78.933,296.123 78.926,293.891 78.908 L 289.832 78.875 289.887 81.381 L 289.941 83.887 293.652 84.041 C 295.693 84.125,297.473 84.233,297.607 84.279 C 297.880 84.373,297.975 91.507,297.705 91.663 C 297.555 91.749,292.178 91.327,290.669 91.110 L 289.833 90.990 289.887 93.884 L 289.941 96.777 291.797 97.008 C 292.817 97.135,294.751 97.338,296.094 97.460 C 299.108 97.732,298.808 97.272,298.931 101.816 L 299.036 105.664 298.536 105.664 C 298.261 105.664,295.688 105.358,292.817 104.984 C 289.946 104.610,286.383 104.179,284.899 104.027 C 283.415 103.875,282.161 103.711,282.113 103.662 C 281.976 103.526,282.013 71.673,282.150 71.451 C 282.216 71.343,282.458 71.305,282.688 71.367 C 282.918 71.429,286.599 71.480,290.869 71.482 M105.730 73.047 C 105.820 73.853,106.369 77.749,106.950 81.706 C 107.532 85.662,108.010 89.134,108.014 89.421 C 108.030 90.860,108.437 88.867,109.164 83.784 C 109.602 80.725,110.203 76.729,110.500 74.902 L 111.041 71.582 116.459 71.530 L 121.877 71.478 121.827 87.057 L 121.777 102.637 118.945 102.966 C 117.388 103.147,115.782 103.301,115.376 103.308 L 114.639 103.320 114.740 92.150 C 114.802 85.366,114.771 81.051,114.662 81.163 C 114.450 81.381,113.624 86.567,111.599 100.391 C 111.434 101.519,111.236 102.749,111.160 103.125 L 111.022 103.809 109.015 104.030 C 107.911 104.151,106.665 104.306,106.246 104.373 C 105.270 104.529,105.206 104.409,104.801 101.660 C 104.626 100.479,104.181 98.018,103.810 96.191 C 102.990 92.151,101.905 86.224,101.440 83.252 C 101.251 82.043,101.015 81.055,100.916 81.055 C 100.817 81.055,100.800 81.252,100.878 81.494 C 100.956 81.736,101.064 87.091,101.118 93.395 L 101.216 104.857 100.559 104.962 C 98.496 105.291,94.217 105.796,94.092 105.725 C 94.011 105.679,93.945 97.954,93.945 88.560 L 93.945 71.479 99.756 71.530 L 105.566 71.582 105.730 73.047 M141.948 74.756 L 141.895 78.027 137.354 78.080 L 132.813 78.132 132.813 80.375 L 132.813 82.617 137.012 82.617 L 141.211 82.617 141.211 85.813 L 141.211 89.009 140.305 89.134 C 139.806 89.202,138.510 89.258,137.424 89.259 C 136.338 89.260,134.856 89.317,134.131 89.385 L 132.813 89.510 132.813 91.937 L 132.813 94.365 136.865 94.221 C 139.094 94.142,141.182 94.069,141.504 94.060 L 142.090 94.043 142.143 97.402 L 142.197 100.762 141.557 100.864 C 141.206 100.920,138.633 101.149,135.840 101.373 C 133.047 101.597,129.578 101.904,128.131 102.054 C 126.084 102.267,125.468 102.275,125.351 102.091 C 125.269 101.962,125.200 95.022,125.198 86.670 L 125.195 71.484 133.598 71.484 L 142.002 71.484 141.948 74.756 M246.528 77.786 C 245.572 78.803,245.508 79.285,245.508 85.416 C 245.508 91.886,245.635 92.990,246.475 93.831 C 247.363 94.719,249.208 94.433,249.846 93.309 C 250.193 92.696,250.329 80.517,250.002 79.304 C 249.519 77.512,247.581 76.665,246.528 77.786 M268.360 79.248 C 268.361 79.973,268.418 81.546,268.487 82.742 L 268.612 84.918 269.413 84.846 C 272.165 84.598,272.459 84.279,272.460 81.543 C 272.461 78.696,271.834 77.986,269.287 77.945 L 268.359 77.930 268.360 79.248 M178.613 108.385 C 176.913 108.605,176.172 109.463,176.172 111.211 C 176.172 112.314,176.164 112.314,174.958 111.230 C 170.782 107.475,161.937 107.685,157.957 111.634 C 157.340 112.246,156.835 112.625,156.834 112.477 C 156.833 112.328,156.620 111.751,156.361 111.194 C 155.603 109.566,155.473 109.536,150.659 109.857 C 148.417 110.006,145.410 110.190,143.978 110.266 C 141.580 110.393,141.328 110.443,140.786 110.898 C 140.098 111.478,139.230 111.540,138.687 111.049 C 138.263 110.665,138.857 110.645,130.240 111.336 C 124.151 111.824,124.387 111.772,123.651 112.797 L 123.047 113.638 123.047 132.387 L 123.047 151.137 123.557 151.916 C 124.636 153.565,125.570 153.627,131.428 152.445 C 134.989 151.726,138.435 151.141,141.895 150.668 C 143.312 150.474,144.217 150.248,144.554 150.005 C 144.926 149.737,145.124 149.695,145.280 149.850 C 145.650 150.221,154.626 149.222,155.348 148.731 C 156.319 148.069,156.708 147.381,156.671 146.395 C 156.630 145.320,156.636 145.319,157.777 146.268 C 161.897 149.694,170.753 149.169,174.654 145.268 C 175.871 144.051,176.162 144.018,176.169 145.094 C 176.174 145.847,177.725 147.266,178.539 147.262 C 183.680 147.236,187.917 146.863,188.662 146.370 L 189.438 145.856 190.276 146.254 C 191.102 146.646,193.407 146.725,202.246 146.664 C 202.676 146.661,206.162 146.765,209.992 146.895 L 216.957 147.132 218.723 146.515 C 220.778 145.797,221.218 145.759,221.384 146.280 C 221.667 147.173,222.524 147.592,224.346 147.730 C 225.297 147.802,227.682 147.996,229.648 148.162 C 234.112 148.537,234.577 148.414,235.656 146.575 C 235.838 146.265,235.913 146.327,236.272 147.086 C 237.181 149.004,237.483 149.087,247.559 150.200 C 248.853 150.343,251.058 150.736,256.975 151.877 C 259.646 152.392,260.053 152.376,260.989 151.717 C 262.122 150.919,262.128 150.870,262.222 142.232 L 262.308 134.301 263.509 131.262 C 264.170 129.590,265.189 127.036,265.773 125.586 C 266.357 124.136,267.169 122.114,267.576 121.094 C 267.984 120.073,268.638 118.538,269.031 117.681 C 270.569 114.322,269.563 111.917,266.504 111.639 C 265.752 111.571,263.167 111.339,260.760 111.124 L 256.383 110.733 255.909 111.177 C 255.340 111.711,254.751 111.661,254.151 111.028 C 253.631 110.480,253.336 110.425,249.512 110.171 C 244.624 109.847,238.324 109.394,235.742 109.182 C 234.399 109.072,232.477 108.982,231.471 108.983 L 229.642 108.984 228.916 109.717 C 228.329 110.310,228.144 110.691,227.944 111.719 C 226.896 117.106,226.756 117.501,226.290 116.392 C 225.032 113.401,224.983 113.334,222.707 111.509 C 218.848 108.414,218.310 108.325,203.344 108.312 L 191.356 108.301 191.065 108.740 C 190.684 109.313,190.137 109.297,189.418 108.691 L 188.837 108.203 184.214 108.231 C 181.671 108.246,179.150 108.315,178.613 108.385 M188.195 112.402 C 188.325 112.939,189.131 115.356,189.987 117.773 C 190.843 120.190,191.827 123.091,192.175 124.219 C 192.523 125.347,192.892 126.357,192.996 126.465 C 193.117 126.590,193.173 123.943,193.152 119.043 L 193.120 111.426 196.804 111.426 L 200.488 111.426 200.488 125.684 L 200.488 139.941 196.310 139.941 C 192.788 139.941,192.111 139.895,191.996 139.648 C 191.921 139.487,190.955 136.631,189.849 133.301 C 187.043 124.848,186.887 124.414,186.673 124.414 C 186.568 124.414,186.533 124.548,186.596 124.712 C 186.659 124.876,186.717 128.413,186.724 132.573 L 186.738 140.137 183.306 140.311 C 181.418 140.407,179.812 140.424,179.738 140.350 C 179.645 140.257,179.595 114.209,179.683 111.679 C 179.689 111.490,181.585 111.396,185.044 111.412 L 187.959 111.426 188.195 112.402 M216.241 111.737 C 221.845 112.625,224.216 116.987,224.218 126.416 C 224.219 132.963,223.276 136.199,220.681 138.548 C 218.678 140.360,218.405 140.399,208.350 140.283 L 204.102 140.234 204.102 125.911 C 204.102 118.034,204.138 111.552,204.183 111.507 C 204.352 111.338,215.000 111.541,216.241 111.737 M170.786 112.264 C 175.180 113.880,176.660 117.531,176.660 126.758 C 176.660 137.945,173.814 141.699,165.332 141.699 L 162.207 141.699 160.917 141.068 C 157.505 139.399,156.041 135.572,156.060 128.377 C 156.094 115.953,158.983 111.607,167.090 111.783 C 169.117 111.828,169.862 111.925,170.786 112.264 M236.813 112.366 L 240.716 112.598 241.173 114.746 C 241.425 115.928,242.156 119.268,242.798 122.168 C 243.440 125.068,244.440 129.639,245.020 132.324 C 245.984 136.787,246.695 139.971,247.280 142.443 C 247.403 142.960,247.458 143.428,247.402 143.483 C 247.321 143.564,243.730 143.145,240.290 142.653 C 239.575 142.551,239.544 142.475,238.832 139.106 C 238.340 136.779,238.604 136.954,235.460 136.872 L 233.323 136.816 232.880 139.142 C 232.637 140.422,232.368 141.530,232.283 141.606 C 231.877 141.966,224.510 141.124,224.546 140.721 C 224.565 140.507,225.032 138.574,225.585 136.426 C 226.138 134.277,226.940 130.938,227.368 129.004 C 227.795 127.070,228.323 124.744,228.541 123.833 C 228.759 122.923,229.412 119.941,229.991 117.207 C 231.128 111.843,231.075 111.967,232.169 112.067 C 232.577 112.105,234.666 112.239,236.813 112.366 M153.516 127.528 C 153.516 136.149,153.442 142.405,153.339 142.469 C 153.242 142.529,152.034 142.704,150.654 142.859 C 149.274 143.013,147.762 143.201,147.295 143.277 L 146.445 143.416 146.513 132.955 C 146.575 123.621,146.505 121.181,146.220 122.682 C 146.172 122.936,145.991 123.936,145.818 124.902 C 145.507 126.635,145.296 127.959,143.666 138.366 C 142.949 142.944,142.794 143.645,142.466 143.772 C 141.932 143.981,137.097 144.779,136.994 144.676 C 136.946 144.629,136.640 142.753,136.312 140.508 C 135.706 136.352,135.320 134.200,134.090 128.130 C 133.710 126.254,133.398 124.547,133.398 124.338 C 133.398 124.129,133.352 124.005,133.294 124.062 C 133.237 124.119,133.195 128.962,133.200 134.824 C 133.206 142.078,133.143 145.522,133.004 145.608 C 132.891 145.678,132.032 145.857,131.096 146.006 C 130.160 146.155,128.756 146.424,127.976 146.606 C 127.195 146.787,126.526 146.899,126.488 146.856 C 126.451 146.813,126.386 139.570,126.345 130.762 L 126.270 114.746 130.078 114.421 C 132.173 114.242,134.637 114.035,135.553 113.960 L 137.220 113.823 137.677 117.019 C 137.929 118.777,138.519 122.271,138.989 124.783 C 139.459 127.296,139.844 129.730,139.844 130.192 C 139.844 130.654,139.932 131.086,140.039 131.152 C 140.146 131.219,140.235 131.158,140.235 131.017 C 140.237 130.604,141.157 123.521,141.500 121.289 C 141.673 120.161,141.986 117.978,142.196 116.437 C 142.665 112.992,142.435 113.285,144.689 113.264 C 145.730 113.255,147.900 113.136,149.512 112.999 C 151.123 112.863,152.683 112.739,152.979 112.724 L 153.516 112.695 153.516 127.528 M248.096 113.166 C 252.211 113.458,251.798 113.161,252.622 116.418 C 252.987 117.862,253.547 119.717,253.866 120.540 C 254.184 121.364,254.553 122.484,254.684 123.030 C 254.884 123.864,255.253 124.387,255.282 123.877 C 255.286 123.796,255.835 121.577,256.502 118.945 L 257.715 114.160 258.691 114.168 C 260.988 114.185,265.662 114.712,265.759 114.965 C 265.862 115.234,264.875 117.830,262.390 123.828 C 261.567 125.815,260.446 128.540,259.900 129.883 L 258.907 132.324 258.842 138.770 C 258.764 146.548,258.999 145.768,256.897 145.223 C 255.951 144.977,254.297 144.621,253.223 144.432 C 250.535 143.959,250.781 144.640,250.781 137.686 L 250.781 131.669 250.223 130.141 C 249.337 127.713,247.798 123.757,246.629 120.898 C 245.478 118.083,243.555 113.010,243.555 112.787 C 243.555 112.713,243.793 112.713,244.085 112.786 C 244.376 112.859,246.181 113.030,248.096 113.166 M211.914 125.979 L 211.914 134.028 213.275 133.952 C 216.036 133.796,216.256 133.159,216.174 125.551 C 216.100 118.725,215.954 118.365,213.135 118.062 L 211.914 117.930 211.914 125.979 M165.465 118.561 C 165.038 118.821,164.648 119.326,164.321 120.041 L 163.824 121.126 163.896 127.345 L 163.968 133.565 164.561 134.409 C 165.741 136.093,167.951 135.506,168.593 133.339 C 168.946 132.145,168.944 120.878,168.590 119.879 C 168.052 118.360,166.718 117.797,165.465 118.561 M235.759 119.941 C 235.750 120.006,235.427 122.027,235.042 124.433 C 233.988 131.025,234.012 130.424,234.791 130.543 C 235.153 130.599,235.923 130.698,236.503 130.762 L 237.557 130.880 237.440 129.942 C 236.921 125.776,235.842 119.360,235.759 119.941 " stroke="none" fill="#060606" fill-rule="evenodd"></path><path id="path1" d="M0.000 112.500 L 0.000 225.000 200.000 225.000 L 400.000 225.000 400.000 112.500 L 400.000 0.000 200.000 0.000 L 0.000 0.000 0.000 112.500 M249.706 67.669 C 252.461 67.980,255.142 69.038,256.338 70.287 C 257.325 71.317,257.562 71.304,257.726 70.211 C 257.811 69.639,258.053 69.119,258.413 68.734 L 258.969 68.139 266.643 68.210 C 275.484 68.291,275.949 68.369,277.760 70.062 C 278.725 70.965,278.784 70.962,278.990 70.000 C 279.061 69.667,279.428 69.096,279.805 68.731 L 280.491 68.066 290.558 68.091 C 303.708 68.124,302.375 67.116,302.299 76.965 L 302.246 83.715 301.694 84.371 L 301.141 85.027 301.199 90.081 C 301.261 95.481,301.242 95.332,301.904 95.681 L 302.344 95.912 302.337 103.181 C 302.329 111.086,302.347 110.949,301.192 111.801 C 300.251 112.496,299.774 112.545,297.264 112.212 C 296.030 112.048,293.912 111.782,292.557 111.622 C 291.203 111.462,287.924 111.026,285.269 110.653 C 278.283 109.671,278.727 110.251,278.718 102.086 C 278.711 96.374,278.694 96.083,278.372 96.404 C 277.554 97.223,274.388 98.231,272.607 98.239 L 271.875 98.242 271.875 102.656 L 271.875 107.070 271.240 107.665 C 269.862 108.958,269.215 108.998,262.701 108.188 C 261.039 107.982,259.567 107.813,259.430 107.813 C 258.899 107.813,257.630 106.420,257.500 105.695 C 257.281 104.476,257.158 104.393,256.538 105.050 C 252.650 109.169,241.041 107.630,237.361 102.508 C 236.541 101.366,236.512 101.362,235.866 102.339 C 232.128 107.987,220.074 107.828,215.625 102.071 C 214.782 100.981,214.877 100.977,213.994 102.135 C 211.159 105.853,202.435 107.160,197.217 104.648 L 195.509 103.826 194.776 104.529 C 193.770 105.492,194.367 105.437,183.550 105.561 C 178.208 105.623,173.725 105.713,173.589 105.761 C 173.452 105.810,170.527 105.951,167.090 106.074 C 163.652 106.198,159.521 106.355,157.910 106.423 C 156.292 106.492,154.788 106.469,154.551 106.372 C 154.256 106.251,153.919 106.289,153.477 106.493 C 152.839 106.786,149.131 107.064,144.922 107.134 C 143.901 107.151,142.759 107.226,142.383 107.300 C 142.007 107.375,139.546 107.605,136.914 107.812 C 134.282 108.019,130.767 108.330,129.102 108.505 C 127.437 108.679,125.623 108.771,125.071 108.709 C 124.418 108.635,123.838 108.690,123.410 108.867 C 122.622 109.193,117.241 109.815,114.648 109.879 C 113.628 109.904,112.073 110.061,111.194 110.229 C 108.646 110.715,104.525 111.171,103.908 111.036 C 103.598 110.967,103.181 110.998,102.983 111.104 C 102.571 111.325,94.867 112.335,93.586 112.336 C 92.410 112.338,91.716 112.003,91.124 111.148 L 90.618 110.418 90.670 90.204 L 90.723 69.991 91.260 69.179 C 92.001 68.059,91.981 68.062,99.858 68.102 L 106.845 68.137 107.442 68.639 C 108.258 69.326,108.929 69.204,109.228 68.314 C 109.325 68.025,115.137 67.993,141.083 68.136 L 157.459 68.227 157.667 68.684 C 157.937 69.277,158.489 69.263,159.224 68.645 L 159.813 68.149 167.162 68.137 C 171.204 68.131,175.303 68.114,176.270 68.101 C 177.236 68.087,181.624 68.096,186.020 68.120 L 194.012 68.164 194.865 69.054 L 195.718 69.944 196.287 69.466 C 200.036 66.311,209.437 67.137,213.354 70.965 C 215.188 72.758,214.773 72.755,216.500 70.993 C 221.145 66.258,230.304 66.301,235.098 71.081 L 236.700 72.678 237.417 71.884 C 240.001 69.025,244.706 67.122,248.242 67.506 C 248.511 67.535,249.169 67.609,249.706 67.669 M200.366 71.466 C 195.718 72.721,192.963 78.243,194.989 82.246 C 196.440 85.115,198.039 86.417,202.539 88.393 C 205.707 89.784,206.706 90.935,205.974 92.349 C 204.721 94.773,201.173 93.735,201.172 90.944 L 201.172 90.189 197.607 90.300 L 194.043 90.412 194.053 91.837 C 194.089 97.334,200.386 100.592,207.422 98.753 C 213.863 97.069,215.987 89.963,211.549 84.943 C 210.741 84.028,210.403 83.836,205.652 81.579 C 202.364 80.018,201.758 79.519,201.758 78.377 C 201.758 76.045,205.481 75.960,205.967 78.281 C 206.207 79.424,206.114 79.398,209.765 79.354 C 213.701 79.307,213.412 79.443,213.106 77.782 C 212.153 72.592,206.528 69.804,200.366 71.466 M222.852 71.233 C 217.930 72.105,215.827 76.184,215.824 84.863 C 215.821 95.608,218.231 99.359,225.391 99.748 C 231.746 100.094,235.547 96.494,235.547 90.128 C 235.547 88.145,236.334 88.377,229.007 88.202 L 228.228 88.184 228.165 90.137 C 228.052 93.630,226.080 95.013,224.124 92.971 C 222.893 91.687,222.833 79.602,224.048 77.895 C 225.823 75.402,228.107 76.982,228.120 80.713 L 228.125 82.031 231.792 82.031 L 235.459 82.031 235.325 80.225 C 234.806 73.240,230.214 69.930,222.852 71.233 M244.776 71.396 C 241.365 72.314,238.852 75.021,237.984 78.711 C 237.531 80.638,237.355 87.582,237.686 90.434 C 238.493 97.371,242.559 101.012,249.187 100.732 C 253.693 100.542,255.626 99.145,257.207 94.938 L 257.910 93.066 257.910 86.230 C 257.910 78.714,257.877 78.447,256.610 75.879 C 254.740 72.086,249.535 70.114,244.776 71.396 M94.141 88.571 L 94.141 105.708 94.775 105.596 C 95.125 105.535,96.641 105.338,98.145 105.158 C 99.648 104.979,100.934 104.777,101.002 104.711 C 101.117 104.598,100.866 82.199,100.741 81.355 C 100.705 81.117,100.813 80.945,101.025 80.901 C 101.285 80.848,101.367 80.960,101.367 81.370 C 101.367 82.506,102.696 90.160,103.906 95.996 C 104.240 97.607,104.692 100.112,104.911 101.563 C 105.388 104.722,105.091 104.400,107.271 104.124 C 108.267 103.997,109.500 103.845,110.011 103.784 C 111.103 103.655,110.951 104.076,111.621 99.316 C 111.894 97.383,112.202 95.317,112.306 94.727 C 112.411 94.136,112.893 90.913,113.377 87.564 C 114.306 81.146,114.363 80.859,114.718 80.859 C 114.884 80.859,114.927 83.763,114.886 92.087 L 114.832 103.315 115.765 103.207 C 116.279 103.148,117.287 103.017,118.006 102.917 C 118.725 102.816,119.736 102.733,120.252 102.731 C 120.769 102.730,121.297 102.661,121.426 102.579 C 121.708 102.400,121.801 95.858,121.729 81.295 L 121.680 71.476 116.509 71.491 C 113.665 71.499,111.289 71.584,111.230 71.680 C 111.076 71.929,110.320 76.647,109.274 83.884 C 108.176 91.487,108.193 91.441,107.729 87.976 C 107.572 86.801,107.136 83.774,106.761 81.250 C 106.385 78.726,105.936 75.563,105.761 74.223 C 105.587 72.882,105.409 71.750,105.366 71.707 C 105.323 71.664,102.780 71.585,99.714 71.532 L 94.141 71.434 94.141 88.571 M125.391 86.816 L 125.391 102.148 125.830 102.146 C 126.072 102.145,127.456 102.021,128.906 101.870 C 130.356 101.719,132.861 101.490,134.473 101.360 C 136.084 101.230,138.457 101.024,139.746 100.902 L 142.090 100.680 142.042 97.459 L 141.993 94.238 139.014 94.290 C 137.376 94.319,135.315 94.392,134.435 94.453 L 132.835 94.564 132.775 92.058 C 132.742 90.679,132.759 89.492,132.813 89.421 C 132.866 89.350,134.755 89.218,137.009 89.128 L 141.108 88.965 141.093 85.840 L 141.077 82.715 136.957 82.789 L 132.838 82.864 132.776 80.641 C 132.695 77.697,131.922 78.029,139.014 77.958 L 141.797 77.930 141.797 74.707 L 141.797 71.484 133.594 71.484 L 125.391 71.484 125.391 86.816 M145.067 71.599 C 144.987 71.679,144.922 78.244,144.922 86.188 L 144.922 100.632 146.338 100.515 C 147.117 100.450,148.664 100.340,149.776 100.270 L 151.799 100.142 151.698 90.550 C 151.642 85.274,151.533 80.707,151.455 80.401 C 151.336 79.932,151.369 79.855,151.664 79.912 C 152.041 79.986,152.314 81.069,153.203 86.035 C 153.453 87.432,154.057 90.684,154.546 93.262 C 155.035 95.840,155.509 98.389,155.598 98.926 C 155.688 99.463,155.850 99.899,155.957 99.895 C 156.064 99.891,157.315 99.815,158.735 99.727 L 161.318 99.566 161.427 98.953 C 162.139 94.921,162.608 92.191,163.194 88.672 C 163.578 86.362,164.106 83.564,164.368 82.453 C 164.630 81.343,164.844 80.266,164.844 80.061 C 164.844 79.844,164.979 79.688,165.167 79.688 C 165.464 79.688,165.484 80.463,165.411 89.404 L 165.332 99.121 168.555 99.051 C 170.327 99.012,171.847 98.916,171.932 98.837 C 172.017 98.759,172.061 92.594,172.030 85.138 L 171.973 71.582 166.768 71.530 L 161.564 71.478 161.350 72.409 C 161.011 73.889,159.615 81.479,159.132 84.473 C 158.610 87.714,158.216 88.168,157.948 85.840 C 157.798 84.546,155.953 72.806,155.768 71.973 C 155.678 71.567,145.456 71.210,145.067 71.599 M175.716 71.615 C 175.645 71.686,175.586 77.835,175.586 85.278 L 175.586 98.811 183.936 98.695 C 188.528 98.631,192.301 98.568,192.321 98.554 C 192.341 98.540,192.305 97.184,192.242 95.541 L 192.127 92.554 187.909 92.579 C 185.589 92.594,183.582 92.599,183.447 92.592 C 183.266 92.582,183.203 91.972,183.203 90.234 L 183.203 87.891 187.310 87.891 L 191.416 87.891 191.363 84.912 L 191.309 81.934 187.371 81.934 C 182.736 81.934,183.236 82.203,183.189 79.683 L 183.151 77.637 187.620 77.539 L 192.090 77.441 192.144 74.463 L 192.198 71.484 184.022 71.484 C 179.525 71.484,175.788 71.543,175.716 71.615 M261.054 71.837 C 260.830 72.588,260.973 101.562,261.201 101.563 C 261.774 101.565,266.976 101.960,267.627 102.051 L 268.359 102.153 268.359 96.654 L 268.359 91.155 269.908 91.284 C 276.797 91.858,279.709 89.209,279.754 82.324 C 279.793 76.462,278.294 73.702,274.177 72.050 C 272.723 71.467,261.220 71.280,261.054 71.837 M282.122 71.726 C 282.070 71.862,282.051 79.089,282.078 87.787 L 282.129 103.602 285.156 103.943 C 286.821 104.131,290.029 104.517,292.285 104.800 C 294.541 105.084,296.893 105.378,297.513 105.455 C 298.950 105.631,298.828 105.985,298.828 101.640 L 298.828 97.875 297.998 97.770 C 297.542 97.711,295.718 97.527,293.945 97.361 C 292.173 97.195,290.481 97.010,290.186 96.951 L 289.648 96.844 289.648 93.930 L 289.648 91.016 290.381 91.021 C 290.784 91.025,292.388 91.154,293.945 91.309 C 295.503 91.463,297.026 91.593,297.330 91.596 L 297.882 91.602 297.834 88.330 C 297.807 86.531,297.748 84.914,297.703 84.737 C 297.617 84.400,297.729 84.412,291.748 84.068 L 289.648 83.947 289.648 81.311 L 289.648 78.675 294.145 78.817 L 298.642 78.960 298.588 75.271 L 298.535 71.582 290.376 71.531 C 283.952 71.491,282.196 71.532,282.122 71.726 M248.836 77.445 C 250.211 78.157,250.294 78.640,250.286 85.938 C 250.279 93.307,250.232 93.605,248.969 94.205 C 247.575 94.866,246.364 94.409,245.740 92.985 C 245.332 92.055,245.142 81.350,245.503 79.614 C 245.921 77.598,247.343 76.673,248.836 77.445 M271.349 78.219 C 272.931 78.881,273.203 83.034,271.758 84.479 C 271.072 85.165,269.326 85.454,268.612 85.000 C 268.417 84.877,268.264 80.729,268.351 77.953 C 268.361 77.621,270.336 77.796,271.349 78.219 M189.337 108.496 C 190.221 109.096,190.687 109.113,191.054 108.561 C 191.369 108.087,192.202 108.067,208.008 108.153 C 217.731 108.206,219.572 108.658,223.410 111.934 C 225.053 113.336,225.244 113.621,226.354 116.304 C 226.694 117.126,226.808 116.831,227.522 113.282 C 228.091 110.453,228.175 110.211,228.804 109.582 L 229.476 108.909 231.682 108.936 C 234.026 108.964,237.169 109.155,245.508 109.774 C 254.224 110.421,253.463 110.318,254.190 110.955 C 254.944 111.618,255.564 111.684,255.859 111.133 C 256.119 110.648,256.816 110.633,260.861 111.022 C 262.461 111.176,264.517 111.359,265.430 111.428 C 269.985 111.774,270.928 113.767,268.801 118.555 C 268.253 119.790,267.631 121.240,267.420 121.777 C 267.209 122.314,266.668 123.633,266.218 124.707 C 265.768 125.781,265.063 127.583,264.651 128.711 C 264.239 129.839,263.625 131.421,263.285 132.227 C 262.946 133.032,262.586 133.954,262.486 134.276 C 262.386 134.598,262.305 138.348,262.305 142.611 L 262.305 150.361 261.769 151.010 C 260.779 152.211,259.676 152.687,258.670 152.348 C 258.039 152.136,249.774 150.620,247.949 150.382 C 246.720 150.222,243.082 149.766,239.703 149.349 C 237.486 149.075,237.021 148.808,236.295 147.393 L 235.910 146.641 235.231 147.435 C 234.236 148.597,233.941 148.631,228.408 148.209 C 222.859 147.786,222.149 147.632,221.585 146.738 C 221.025 145.850,220.950 145.847,218.738 146.614 L 216.742 147.307 210.080 147.083 C 206.416 146.960,203.137 146.769,202.793 146.660 C 202.361 146.522,202.048 146.525,201.780 146.668 C 200.919 147.129,191.290 146.932,190.422 146.436 L 189.653 145.996 188.625 146.531 C 187.636 147.046,182.659 147.445,178.460 147.346 C 177.494 147.323,176.433 146.335,176.119 145.166 C 175.847 144.157,175.776 144.148,175.095 145.040 C 171.975 149.132,162.164 149.913,157.813 146.417 L 156.934 145.710 156.803 146.728 C 156.646 147.951,155.570 149.128,154.465 149.288 C 152.665 149.547,145.460 150.189,145.320 150.102 C 145.231 150.047,144.864 150.123,144.503 150.269 C 144.143 150.416,143.364 150.594,142.773 150.665 C 141.696 150.794,139.093 151.193,136.719 151.591 C 136.021 151.709,133.911 152.101,132.031 152.464 C 125.283 153.765,124.670 153.731,123.486 151.996 L 122.852 151.066 122.852 132.577 C 122.852 113.134,122.831 113.568,123.812 112.450 C 124.467 111.704,124.875 111.628,130.859 111.140 C 137.507 110.597,138.371 110.586,138.872 111.040 C 139.342 111.465,139.933 111.392,140.605 110.827 C 141.255 110.280,140.599 110.350,150.586 109.765 C 155.292 109.489,155.151 109.478,155.844 110.171 C 156.175 110.502,156.501 111.007,156.570 111.294 C 156.827 112.371,157.018 112.374,158.135 111.317 C 162.094 107.573,170.891 107.471,175.037 111.120 C 176.177 112.124,176.172 112.125,176.172 110.837 C 176.172 109.883,176.248 109.676,176.840 109.030 L 177.508 108.301 180.893 108.192 C 188.438 107.950,188.537 107.954,189.337 108.496 M179.735 125.898 L 179.785 140.273 182.813 140.245 C 184.478 140.229,186.051 140.164,186.309 140.099 L 186.779 139.982 186.667 132.089 C 186.588 126.466,186.616 124.217,186.767 124.267 C 186.967 124.334,191.318 136.986,192.109 139.799 C 192.163 139.992,193.086 140.035,196.236 139.994 L 200.293 139.941 200.343 125.732 L 200.393 111.523 196.748 111.523 L 193.102 111.523 193.239 119.141 C 193.390 127.531,193.278 128.356,192.398 125.342 C 192.170 124.563,191.062 121.245,189.936 117.969 C 188.809 114.692,187.888 111.902,187.889 111.768 C 187.890 111.580,186.941 111.523,183.788 111.523 L 179.685 111.523 179.735 125.898 M204.199 125.741 L 204.199 139.998 208.691 140.139 C 217.420 140.411,218.595 140.245,220.712 138.439 C 225.211 134.602,225.432 118.719,221.049 114.223 C 218.929 112.048,217.438 111.689,210.059 111.574 L 204.199 111.483 204.199 125.741 M165.234 111.830 C 158.602 112.977,156.557 116.307,156.309 126.367 C 156.022 138.032,158.110 141.653,165.137 141.672 C 171.165 141.688,174.435 139.423,176.000 134.148 C 176.526 132.375,176.771 123.582,176.371 120.844 C 175.417 114.322,171.088 110.818,165.234 111.830 M231.076 112.825 C 230.967 113.237,230.439 115.640,229.903 118.164 C 228.674 123.946,226.841 131.949,225.588 137.002 C 225.056 139.145,224.641 140.917,224.665 140.941 C 224.804 141.080,232.129 141.579,232.234 141.457 C 232.305 141.375,232.514 140.430,232.700 139.355 C 233.186 136.536,233.230 136.457,234.234 136.591 C 234.688 136.652,235.762 136.760,236.621 136.831 C 238.285 136.969,238.672 137.136,238.672 137.716 C 238.672 138.478,239.698 142.413,239.912 142.471 C 240.546 142.642,247.102 143.392,247.191 143.304 C 247.289 143.205,246.900 141.263,245.814 136.426 C 245.549 135.244,245.243 133.882,245.135 133.398 C 244.711 131.506,241.411 116.401,241.046 114.682 C 240.833 113.679,240.624 112.824,240.581 112.782 C 240.539 112.739,238.839 112.615,236.805 112.505 C 234.770 112.395,232.693 112.254,232.190 112.191 L 231.274 112.076 231.076 112.825 M151.546 112.965 C 151.501 113.006,149.531 113.148,147.168 113.279 C 144.805 113.411,142.818 113.604,142.753 113.707 C 142.688 113.811,142.527 114.790,142.396 115.883 C 142.264 116.977,141.948 119.233,141.692 120.898 C 141.437 122.563,141.045 125.420,140.822 127.246 C 140.238 132.028,140.009 132.648,139.758 130.127 C 139.685 129.402,139.324 127.218,138.954 125.273 C 138.584 123.329,138.105 120.560,137.890 119.121 C 137.085 113.740,137.111 113.837,136.539 113.950 C 136.262 114.005,134.321 114.187,132.227 114.355 C 130.132 114.522,127.956 114.707,127.391 114.766 L 126.365 114.872 126.415 130.825 C 126.459 144.873,126.500 146.773,126.758 146.737 C 126.919 146.715,127.886 146.525,128.906 146.315 C 129.927 146.106,131.245 145.859,131.836 145.768 L 132.910 145.602 133.008 134.373 C 133.062 128.197,133.166 123.276,133.240 123.438 C 133.551 124.116,135.785 135.994,136.371 140.088 C 136.937 144.040,137.047 144.531,137.367 144.531 C 137.752 144.531,142.142 143.790,142.500 143.665 C 142.617 143.624,142.864 142.593,143.048 141.375 C 143.231 140.157,143.732 137.051,144.160 134.473 C 144.588 131.895,145.108 128.643,145.316 127.246 C 145.524 125.850,145.784 124.400,145.894 124.025 C 146.004 123.649,146.094 123.100,146.094 122.804 C 146.094 122.433,146.194 122.266,146.418 122.266 C 146.717 122.266,146.733 123.067,146.626 132.715 C 146.557 139.029,146.582 143.164,146.691 143.164 C 147.060 143.164,152.458 142.557,152.881 142.468 L 153.320 142.375 153.320 127.633 L 153.320 112.891 152.474 112.891 C 152.008 112.891,151.591 112.924,151.546 112.965 M243.842 113.466 C 244.015 113.800,244.494 115.015,244.908 116.167 C 245.322 117.319,246.229 119.668,246.924 121.387 C 247.618 123.105,248.792 126.050,249.533 127.930 L 250.879 131.348 250.935 137.623 L 250.992 143.898 252.791 144.227 C 253.780 144.407,255.481 144.769,256.570 145.031 C 257.660 145.293,258.608 145.508,258.678 145.508 C 258.748 145.508,258.797 142.585,258.786 139.014 L 258.767 132.520 259.739 130.078 C 260.273 128.735,261.864 124.792,263.275 121.316 C 264.686 117.839,265.809 114.962,265.769 114.923 C 265.730 114.884,264.693 114.760,263.464 114.649 C 262.236 114.537,260.527 114.371,259.668 114.280 C 257.700 114.073,257.956 113.690,256.715 118.680 C 255.303 124.354,255.286 124.414,255.074 124.414 C 254.973 124.414,254.840 124.172,254.779 123.877 C 254.719 123.582,254.237 122.021,253.709 120.410 C 253.181 118.799,252.573 116.777,252.358 115.918 C 251.744 113.467,251.748 113.477,251.296 113.476 C 250.656 113.475,245.737 113.111,244.567 112.978 L 243.528 112.859 243.842 113.466 M168.008 118.749 C 168.901 119.717,168.979 120.439,168.911 127.125 C 168.841 133.944,168.837 133.970,167.545 135.056 C 165.842 136.490,164.115 135.173,163.853 132.240 C 163.505 128.350,163.627 121.423,164.064 120.254 C 164.880 118.076,166.733 117.368,168.008 118.749 M214.847 118.408 C 216.237 119.353,216.309 119.728,216.309 126.074 C 216.309 132.302,216.230 132.763,215.020 133.646 C 214.436 134.072,212.238 134.350,212.036 134.023 C 211.883 133.777,211.688 118.371,211.835 118.134 C 212.063 117.764,214.183 117.957,214.847 118.408 M236.016 119.891 C 236.072 119.981,236.430 122.201,236.812 124.823 C 237.194 127.445,237.561 129.889,237.628 130.255 L 237.750 130.920 235.922 130.782 C 233.652 130.610,233.818 131.087,234.538 126.808 C 234.877 124.793,235.256 122.375,235.380 121.436 C 235.588 119.862,235.752 119.464,236.016 119.891 " stroke="none" fill="#fbfbfb" fill-rule="evenodd"></path><path id="path2" d="M94.775 68.114 C 95.608 68.151,96.970 68.151,97.803 68.114 C 98.635 68.077,97.954 68.047,96.289 68.047 C 94.624 68.047,93.943 68.077,94.775 68.114 M102.493 68.107 C 102.735 68.154,103.087 68.152,103.274 68.103 C 103.460 68.054,103.262 68.016,102.832 68.018 C 102.402 68.020,102.250 68.060,102.493 68.107 M112.158 68.114 C 113.098 68.150,114.636 68.150,115.576 68.114 C 116.516 68.078,115.747 68.049,113.867 68.049 C 111.987 68.049,111.218 68.078,112.158 68.114 M127.783 68.115 C 129.583 68.147,132.527 68.147,134.326 68.115 C 136.125 68.083,134.653 68.056,131.055 68.056 C 127.456 68.056,125.984 68.083,127.783 68.115 M176.611 68.109 C 176.907 68.153,177.390 68.153,177.686 68.109 C 177.981 68.064,177.739 68.027,177.148 68.027 C 176.558 68.027,176.316 68.064,176.611 68.109 M284.630 68.115 C 285.898 68.149,287.920 68.149,289.122 68.114 C 290.325 68.080,289.287 68.052,286.816 68.052 C 284.346 68.053,283.362 68.081,284.630 68.115 M302.230 73.633 C 302.230 75.620,302.259 76.433,302.294 75.439 C 302.329 74.446,302.329 72.820,302.294 71.826 C 302.259 70.833,302.230 71.646,302.230 73.633 M90.695 72.266 C 90.695 73.286,90.728 73.704,90.769 73.193 C 90.809 72.683,90.809 71.848,90.769 71.338 C 90.728 70.828,90.695 71.245,90.695 72.266 M216.296 71.143 L 215.723 71.777 216.357 71.204 C 216.707 70.888,216.992 70.603,216.992 70.569 C 216.992 70.418,216.831 70.551,216.296 71.143 M203.369 71.033 C 203.557 71.082,203.865 71.082,204.053 71.033 C 204.241 70.984,204.087 70.944,203.711 70.944 C 203.335 70.944,203.181 70.984,203.369 71.033 M103.662 71.622 C 103.904 71.669,104.299 71.669,104.541 71.622 C 104.783 71.576,104.585 71.538,104.102 71.538 C 103.618 71.538,103.420 71.576,103.662 71.622 M264.111 71.624 C 264.407 71.669,264.890 71.669,265.186 71.624 C 265.481 71.580,265.239 71.543,264.648 71.543 C 264.058 71.543,263.816 71.580,264.111 71.624 M94.001 72.559 C 94.003 73.096,94.041 73.292,94.085 72.995 C 94.130 72.698,94.129 72.259,94.083 72.019 C 94.036 71.779,94.000 72.021,94.001 72.559 M121.770 81.348 C 121.770 86.719,121.795 88.888,121.826 86.168 C 121.857 83.448,121.857 79.054,121.826 76.402 C 121.795 73.751,121.770 75.977,121.770 81.348 M125.241 72.461 C 125.241 72.837,125.281 72.991,125.330 72.803 C 125.379 72.615,125.379 72.307,125.330 72.119 C 125.281 71.931,125.241 72.085,125.241 72.461 M137.061 78.074 C 137.625 78.113,138.547 78.113,139.111 78.074 C 139.675 78.034,139.214 78.002,138.086 78.002 C 136.958 78.002,136.497 78.034,137.061 78.074 M292.529 78.849 C 292.771 78.895,293.167 78.895,293.408 78.849 C 293.650 78.802,293.452 78.764,292.969 78.764 C 292.485 78.764,292.288 78.802,292.529 78.849 M211.478 79.438 C 211.829 79.482,212.356 79.481,212.650 79.436 C 212.943 79.392,212.656 79.356,212.012 79.357 C 211.367 79.358,211.127 79.395,211.478 79.438 M289.723 81.738 C 289.723 83.027,289.755 83.529,289.793 82.854 C 289.831 82.178,289.831 81.123,289.793 80.510 C 289.754 79.896,289.723 80.449,289.723 81.738 M223.305 81.641 C 223.305 82.339,223.340 82.625,223.383 82.275 C 223.427 81.926,223.427 81.355,223.383 81.006 C 223.340 80.657,223.305 80.942,223.305 81.641 M235.401 81.152 C 235.403 81.582,235.443 81.735,235.490 81.492 C 235.536 81.249,235.535 80.897,235.486 80.711 C 235.437 80.524,235.399 80.723,235.401 81.152 M250.280 85.547 C 250.280 88.286,250.308 89.407,250.341 88.037 C 250.375 86.667,250.375 84.426,250.341 83.057 C 250.308 81.687,250.280 82.808,250.280 85.547 M260.983 81.641 C 260.983 82.017,261.023 82.170,261.072 81.982 C 261.121 81.794,261.121 81.487,261.072 81.299 C 261.023 81.111,260.983 81.265,260.983 81.641 M302.204 82.520 C 302.206 83.057,302.244 83.253,302.289 82.956 C 302.333 82.659,302.332 82.220,302.286 81.980 C 302.240 81.740,302.203 81.982,302.204 82.520 M184.131 81.977 C 184.480 82.021,185.051 82.021,185.400 81.977 C 185.750 81.934,185.464 81.898,184.766 81.898 C 184.067 81.898,183.782 81.934,184.131 81.977 M151.612 82.715 C 151.614 83.145,151.654 83.297,151.701 83.054 C 151.747 82.811,151.746 82.460,151.697 82.273 C 151.648 82.086,151.610 82.285,151.612 82.715 M215.704 85.059 C 215.704 86.777,215.734 87.454,215.770 86.563 C 215.807 85.672,215.807 84.265,215.770 83.438 C 215.733 82.611,215.704 83.340,215.704 85.059 M136.283 82.759 C 136.634 82.802,137.161 82.801,137.455 82.757 C 137.748 82.712,137.461 82.677,136.816 82.678 C 136.172 82.679,135.932 82.715,136.283 82.759 M258.090 86.523 C 258.090 88.618,258.118 89.475,258.153 88.428 C 258.189 87.380,258.189 85.667,258.153 84.619 C 258.118 83.572,258.090 84.429,258.090 86.523 M141.061 83.594 C 141.061 83.970,141.101 84.124,141.150 83.936 C 141.199 83.748,141.199 83.440,141.150 83.252 C 141.101 83.064,141.061 83.218,141.061 83.594 M100.834 83.984 C 100.834 84.468,100.873 84.666,100.919 84.424 C 100.966 84.182,100.966 83.787,100.919 83.545 C 100.873 83.303,100.834 83.501,100.834 83.984 M291.946 84.123 C 292.189 84.169,292.540 84.167,292.727 84.119 C 292.914 84.070,292.715 84.031,292.285 84.034 C 291.855 84.036,291.703 84.076,291.946 84.123 M270.117 84.961 L 269.238 85.098 270.154 85.127 C 270.658 85.143,271.125 85.068,271.191 84.961 C 271.258 84.854,271.241 84.779,271.154 84.795 C 271.067 84.811,270.601 84.886,270.117 84.961 M141.078 86.523 C 141.078 87.222,141.114 87.507,141.157 87.158 C 141.200 86.809,141.200 86.238,141.157 85.889 C 141.114 85.540,141.078 85.825,141.078 86.523 M165.314 89.746 C 165.314 91.572,165.343 92.346,165.380 91.465 C 165.416 90.584,165.416 89.090,165.380 88.144 C 165.344 87.199,165.315 87.920,165.314 89.746 M229.736 88.221 C 229.924 88.270,230.232 88.270,230.420 88.221 C 230.608 88.171,230.454 88.131,230.078 88.131 C 229.702 88.131,229.548 88.171,229.736 88.221 M235.605 89.648 C 235.605 90.239,235.642 90.481,235.687 90.186 C 235.732 89.890,235.732 89.407,235.687 89.111 C 235.642 88.816,235.605 89.058,235.605 89.648 M136.966 89.203 C 137.262 89.248,137.702 89.246,137.942 89.200 C 138.182 89.154,137.939 89.117,137.402 89.118 C 136.865 89.120,136.669 89.158,136.966 89.203 M223.288 90.039 C 223.288 90.415,223.328 90.569,223.377 90.381 C 223.426 90.193,223.426 89.885,223.377 89.697 C 223.328 89.509,223.288 89.663,223.288 90.039 M101.063 95.605 C 101.063 98.936,101.090 100.325,101.123 98.694 C 101.155 97.062,101.155 94.338,101.123 92.639 C 101.090 90.941,101.063 92.275,101.063 95.605 M194.873 90.376 C 195.222 90.419,195.793 90.419,196.143 90.376 C 196.492 90.332,196.206 90.297,195.508 90.297 C 194.810 90.297,194.524 90.332,194.873 90.376 M289.722 93.164 C 289.722 94.399,289.754 94.905,289.793 94.287 C 289.832 93.669,289.832 92.659,289.793 92.041 C 289.754 91.423,289.722 91.929,289.722 93.164 M301.221 93.848 C 301.223 94.277,301.263 94.430,301.310 94.187 C 301.357 93.944,301.355 93.593,301.306 93.406 C 301.257 93.219,301.219 93.418,301.221 93.848 M192.258 95.117 C 192.258 96.138,192.291 96.555,192.331 96.045 C 192.371 95.535,192.371 94.700,192.331 94.189 C 192.291 93.679,192.258 94.097,192.258 95.117 M138.333 94.281 C 138.630 94.326,139.069 94.324,139.309 94.278 C 139.550 94.232,139.307 94.195,138.770 94.196 C 138.232 94.198,138.036 94.236,138.333 94.281 M133.447 94.471 C 133.635 94.520,133.943 94.520,134.131 94.471 C 134.319 94.421,134.165 94.381,133.789 94.381 C 133.413 94.381,133.259 94.421,133.447 94.471 M142.059 95.996 C 142.060 96.855,142.094 97.183,142.135 96.723 C 142.177 96.264,142.176 95.561,142.134 95.161 C 142.092 94.761,142.058 95.137,142.059 95.996 M121.756 100.098 C 121.756 101.494,121.787 102.040,121.825 101.310 C 121.862 100.581,121.862 99.438,121.824 98.771 C 121.786 98.104,121.755 98.701,121.756 100.098 M181.599 98.778 C 182.275 98.816,183.330 98.816,183.943 98.777 C 184.557 98.738,184.004 98.707,182.715 98.707 C 181.426 98.708,180.924 98.739,181.599 98.778 M167.532 99.162 C 167.775 99.208,168.126 99.207,168.313 99.158 C 168.500 99.109,168.301 99.071,167.871 99.073 C 167.441 99.075,167.289 99.115,167.532 99.162 M114.715 101.660 C 114.716 102.520,114.750 102.847,114.792 102.387 C 114.833 101.928,114.832 101.225,114.790 100.825 C 114.748 100.425,114.715 100.801,114.715 101.660 M90.692 103.027 C 90.693 103.887,90.727 104.214,90.768 103.755 C 90.810 103.295,90.809 102.592,90.767 102.192 C 90.725 101.792,90.691 102.168,90.692 103.027 M93.995 104.785 C 93.997 105.215,94.037 105.368,94.083 105.125 C 94.130 104.882,94.128 104.530,94.080 104.343 C 94.031 104.157,93.992 104.355,93.995 104.785 M180.622 105.613 C 181.189 105.653,182.068 105.652,182.575 105.612 C 183.082 105.572,182.617 105.540,181.543 105.540 C 180.469 105.541,180.054 105.573,180.622 105.613 M162.891 105.988 C 162.487 106.146,162.407 106.215,162.695 106.158 C 162.964 106.104,163.440 106.059,163.753 106.057 C 164.067 106.056,164.262 105.994,164.187 105.919 C 163.958 105.689,163.604 105.708,162.891 105.988 M168.701 105.997 C 168.943 106.044,169.338 106.044,169.580 105.997 C 169.822 105.951,169.624 105.913,169.141 105.913 C 168.657 105.913,168.459 105.951,168.701 105.997 M159.619 106.385 C 159.807 106.434,160.115 106.434,160.303 106.385 C 160.491 106.336,160.337 106.295,159.961 106.295 C 159.585 106.295,159.431 106.336,159.619 106.385 M145.361 107.166 C 145.549 107.215,145.857 107.215,146.045 107.166 C 146.233 107.117,146.079 107.077,145.703 107.077 C 145.327 107.077,145.173 107.117,145.361 107.166 M185.310 108.153 C 185.986 108.191,187.041 108.191,187.654 108.152 C 188.268 108.113,187.715 108.082,186.426 108.082 C 185.137 108.083,184.635 108.114,185.310 108.153 M194.580 108.152 C 195.198 108.191,196.208 108.191,196.826 108.152 C 197.444 108.113,196.938 108.082,195.703 108.082 C 194.468 108.082,193.962 108.113,194.580 108.152 M199.072 108.150 C 199.475 108.192,200.134 108.192,200.537 108.150 C 200.940 108.108,200.610 108.073,199.805 108.073 C 198.999 108.073,198.669 108.108,199.072 108.150 M299.072 112.439 C 299.260 112.488,299.568 112.488,299.756 112.439 C 299.944 112.390,299.790 112.350,299.414 112.350 C 299.038 112.350,298.884 112.390,299.072 112.439 M153.318 114.023 L 153.413 115.332 153.475 114.181 C 153.509 113.547,153.466 112.958,153.380 112.871 C 153.293 112.784,153.265 113.302,153.318 114.023 M144.385 113.416 C 144.573 113.465,144.880 113.465,145.068 113.416 C 145.256 113.367,145.103 113.327,144.727 113.327 C 144.351 113.327,144.197 113.367,144.385 113.416 M122.945 132.520 C 122.945 142.832,122.969 147.022,122.998 141.831 C 123.027 136.640,123.027 128.202,122.998 123.081 C 122.969 117.960,122.945 122.207,122.945 132.520 M204.193 126.270 C 204.193 132.822,204.218 135.475,204.248 132.164 C 204.278 128.853,204.278 123.491,204.248 120.250 C 204.218 117.008,204.193 119.717,204.193 126.270 M211.798 121.191 C 211.798 122.910,211.828 123.587,211.864 122.696 C 211.900 121.804,211.900 120.398,211.864 119.571 C 211.827 118.743,211.798 119.473,211.798 121.191 M193.217 121.680 C 193.217 122.163,193.255 122.361,193.302 122.119 C 193.348 121.877,193.348 121.482,193.302 121.240 C 193.255 120.999,193.217 121.196,193.217 121.680 M176.642 126.465 C 176.642 128.184,176.672 128.861,176.708 127.969 C 176.744 127.078,176.744 125.672,176.708 124.844 C 176.671 124.017,176.641 124.746,176.642 126.465 M186.586 127.148 C 186.586 127.847,186.621 128.132,186.665 127.783 C 186.708 127.434,186.708 126.863,186.665 126.514 C 186.621 126.165,186.586 126.450,186.586 127.148 M163.742 129.297 C 163.742 130.317,163.775 130.735,163.815 130.225 C 163.856 129.714,163.856 128.879,163.815 128.369 C 163.775 127.859,163.742 128.276,163.742 129.297 M224.069 128.320 C 224.069 128.696,224.109 128.850,224.158 128.662 C 224.207 128.474,224.207 128.167,224.158 127.979 C 224.109 127.791,224.069 127.944,224.069 128.320 M153.389 129.688 C 153.389 130.601,153.422 130.974,153.463 130.518 C 153.504 130.061,153.504 129.314,153.463 128.857 C 153.422 128.401,153.389 128.774,153.389 129.688 M133.083 133.203 C 133.083 134.546,133.114 135.095,133.152 134.424 C 133.191 133.752,133.191 132.654,133.152 131.982 C 133.114 131.311,133.083 131.860,133.083 133.203 M153.383 133.203 C 153.383 133.901,153.418 134.187,153.462 133.838 C 153.505 133.489,153.505 132.917,153.462 132.568 C 153.418 132.219,153.383 132.505,153.383 133.203 M146.560 135.059 C 146.561 136.455,146.592 137.001,146.629 136.271 C 146.667 135.542,146.667 134.399,146.629 133.732 C 146.591 133.065,146.560 133.662,146.560 135.059 M153.366 136.523 C 153.366 136.899,153.406 137.053,153.455 136.865 C 153.504 136.677,153.504 136.370,153.455 136.182 C 153.406 135.994,153.366 136.147,153.366 136.523 M133.086 142.480 C 133.086 144.092,133.116 144.725,133.153 143.888 C 133.190 143.050,133.190 141.732,133.153 140.958 C 133.116 140.184,133.086 140.869,133.086 142.480 M205.817 140.183 C 206.385 140.223,207.264 140.222,207.770 140.182 C 208.277 140.142,207.813 140.110,206.738 140.110 C 205.664 140.111,205.250 140.144,205.817 140.183 M207.278 147.015 C 207.575 147.060,208.014 147.059,208.255 147.012 C 208.495 146.966,208.252 146.929,207.715 146.931 C 207.178 146.932,206.981 146.970,207.278 147.015 M182.961 147.208 C 183.204 147.255,183.556 147.253,183.743 147.205 C 183.929 147.156,183.730 147.117,183.301 147.120 C 182.871 147.122,182.718 147.162,182.961 147.208 M213.333 147.210 C 213.630 147.255,214.069 147.254,214.309 147.208 C 214.550 147.161,214.307 147.125,213.770 147.126 C 213.232 147.128,213.036 147.166,213.333 147.210 M178.369 147.400 C 178.557 147.449,178.865 147.449,179.053 147.400 C 179.241 147.351,179.087 147.311,178.711 147.311 C 178.335 147.311,178.181 147.351,178.369 147.400 " stroke="none" fill="#99989a" fill-rule="evenodd"></path><path id="path3" d="M233.984 70.215 C 234.349 70.591,234.691 70.898,234.745 70.898 C 234.798 70.898,234.544 70.591,234.180 70.215 C 233.815 69.839,233.473 69.531,233.419 69.531 C 233.366 69.531,233.620 69.839,233.984 70.215 M175.480 79.297 C 175.480 83.540,175.505 85.276,175.537 83.154 C 175.568 81.033,175.568 77.561,175.537 75.439 C 175.505 73.318,175.480 75.054,175.480 79.297 M141.840 74.837 C 141.809 77.069,141.731 77.924,141.553 77.996 C 141.362 78.073,141.363 78.098,141.559 78.110 C 141.965 78.135,142.006 77.768,141.943 74.698 L 141.883 71.777 141.840 74.837 M144.819 86.426 C 144.819 93.730,144.843 96.690,144.873 93.003 C 144.903 89.316,144.903 83.340,144.873 79.722 C 144.843 76.104,144.819 79.121,144.819 86.426 M125.288 87.988 C 125.288 95.723,125.312 98.858,125.342 94.956 C 125.371 91.054,125.371 84.726,125.342 80.894 C 125.312 77.061,125.288 80.254,125.288 87.988 M94.038 89.258 C 94.038 97.153,94.062 100.383,94.092 96.436 C 94.121 92.488,94.121 86.028,94.092 82.080 C 94.062 78.132,94.038 81.362,94.038 89.258 M186.290 77.685 C 187.396 77.720,189.154 77.720,190.196 77.685 C 191.238 77.649,190.332 77.621,188.184 77.621 C 186.035 77.621,185.183 77.650,186.290 77.685 M194.190 79.199 C 194.192 79.629,194.232 79.782,194.279 79.539 C 194.325 79.296,194.324 78.944,194.275 78.757 C 194.226 78.571,194.188 78.770,194.190 79.199 M289.716 79.012 C 289.652 79.178,289.655 79.369,289.722 79.436 C 289.789 79.502,289.844 79.416,289.844 79.242 C 289.844 79.007,290.079 78.909,290.771 78.854 L 291.699 78.781 290.765 78.746 C 290.081 78.720,289.801 78.791,289.716 79.012 M227.990 80.566 C 227.991 81.211,228.028 81.451,228.071 81.100 C 228.115 80.749,228.114 80.222,228.069 79.928 C 228.025 79.635,227.989 79.922,227.990 80.566 M165.168 80.313 C 165.332 81.176,165.430 81.251,165.430 80.513 C 165.430 80.179,165.343 79.852,165.237 79.787 C 165.117 79.713,165.091 79.910,165.168 80.313 M272.521 81.348 C 272.523 81.992,272.559 82.232,272.602 81.881 C 272.646 81.530,272.645 81.003,272.600 80.709 C 272.556 80.416,272.520 80.703,272.521 81.348 M245.396 85.254 C 245.396 87.725,245.424 88.708,245.458 87.440 C 245.493 86.172,245.492 84.150,245.458 82.948 C 245.424 81.746,245.396 82.783,245.396 85.254 M165.290 82.129 C 165.292 82.666,165.330 82.863,165.375 82.566 C 165.419 82.269,165.418 81.829,165.372 81.589 C 165.326 81.349,165.289 81.592,165.290 82.129 M114.704 82.520 C 114.706 83.057,114.744 83.253,114.789 82.956 C 114.833 82.659,114.832 82.220,114.786 81.980 C 114.740 81.740,114.703 81.982,114.704 82.520 M268.425 83.398 C 268.425 84.204,268.460 84.534,268.502 84.131 C 268.544 83.728,268.544 83.069,268.502 82.666 C 268.460 82.263,268.425 82.593,268.425 83.398 M133.353 82.759 C 133.704 82.802,134.231 82.801,134.525 82.757 C 134.818 82.712,134.531 82.677,133.887 82.678 C 133.242 82.679,133.002 82.715,133.353 82.759 M237.381 85.449 C 237.381 86.846,237.412 87.391,237.450 86.662 C 237.487 85.932,237.487 84.790,237.449 84.123 C 237.411 83.456,237.380 84.053,237.381 85.449 M296.729 84.314 C 296.917 84.363,297.224 84.363,297.412 84.314 C 297.600 84.265,297.446 84.225,297.070 84.225 C 296.694 84.225,296.541 84.265,296.729 84.314 M223.317 86.621 C 223.317 87.910,223.349 88.412,223.387 87.736 C 223.425 87.061,223.425 86.006,223.386 85.393 C 223.348 84.779,223.316 85.332,223.317 86.621 M101.037 86.230 C 101.038 86.875,101.075 87.115,101.118 86.764 C 101.162 86.413,101.161 85.886,101.116 85.592 C 101.072 85.299,101.036 85.586,101.037 86.230 M231.203 88.224 C 231.446 88.271,231.798 88.269,231.985 88.220 C 232.171 88.171,231.973 88.133,231.543 88.135 C 231.113 88.137,230.960 88.177,231.203 88.224 M139.016 89.201 C 139.259 89.247,139.610 89.246,139.797 89.197 C 139.984 89.148,139.785 89.110,139.355 89.112 C 138.926 89.114,138.773 89.154,139.016 89.201 M133.350 89.396 C 133.591 89.442,133.987 89.442,134.229 89.396 C 134.470 89.349,134.272 89.311,133.789 89.311 C 133.306 89.311,133.108 89.349,133.350 89.396 M151.844 94.824 C 151.844 97.832,151.871 99.035,151.904 97.498 C 151.937 95.961,151.937 93.500,151.904 92.029 C 151.871 90.559,151.844 91.816,151.844 94.824 M201.217 91.016 C 201.217 91.392,201.257 91.545,201.307 91.357 C 201.356 91.169,201.356 90.862,201.307 90.674 C 201.257 90.486,201.217 90.640,201.217 91.016 M268.443 95.801 C 268.443 98.164,268.471 99.104,268.505 97.890 C 268.540 96.675,268.539 94.742,268.505 93.593 C 268.471 92.444,268.442 93.438,268.443 95.801 M186.286 92.527 C 186.853 92.567,187.732 92.566,188.239 92.526 C 188.746 92.486,188.281 92.454,187.207 92.454 C 186.133 92.455,185.718 92.487,186.286 92.527 M114.727 96.191 C 114.727 97.803,114.757 98.436,114.794 97.598 C 114.830 96.761,114.830 95.443,114.793 94.669 C 114.756 93.895,114.726 94.580,114.727 96.191 M136.572 94.275 C 136.760 94.324,137.068 94.324,137.256 94.275 C 137.444 94.226,137.290 94.186,136.914 94.186 C 136.538 94.186,136.384 94.226,136.572 94.275 M278.760 96.777 C 278.762 97.207,278.802 97.360,278.849 97.117 C 278.896 96.874,278.894 96.522,278.845 96.336 C 278.796 96.149,278.758 96.348,278.760 96.777 M232.898 97.510 L 232.324 98.145 232.959 97.571 C 233.308 97.255,233.594 96.970,233.594 96.936 C 233.594 96.785,233.433 96.918,232.898 97.510 M187.744 98.778 C 188.577 98.815,189.939 98.815,190.771 98.778 C 191.604 98.741,190.923 98.711,189.258 98.711 C 187.593 98.711,186.912 98.741,187.744 98.778 M176.223 98.968 C 176.520 99.013,176.960 99.012,177.200 98.966 C 177.440 98.919,177.197 98.883,176.660 98.884 C 176.123 98.885,175.927 98.923,176.223 98.968 M169.189 99.163 C 169.485 99.208,169.968 99.208,170.264 99.163 C 170.559 99.119,170.317 99.082,169.727 99.082 C 169.136 99.082,168.894 99.119,169.189 99.163 M160.205 99.744 C 160.393 99.793,160.701 99.793,160.889 99.744 C 161.077 99.695,160.923 99.655,160.547 99.655 C 160.171 99.655,160.017 99.695,160.205 99.744 M226.611 99.939 C 226.799 99.988,227.107 99.988,227.295 99.939 C 227.483 99.890,227.329 99.850,226.953 99.850 C 226.577 99.850,226.423 99.890,226.611 99.939 M247.900 100.924 C 248.303 100.966,248.962 100.966,249.365 100.924 C 249.768 100.881,249.438 100.847,248.633 100.847 C 247.827 100.847,247.498 100.881,247.900 100.924 M298.899 103.906 C 298.899 104.927,298.931 105.344,298.972 104.834 C 299.012 104.324,299.012 103.489,298.972 102.979 C 298.931 102.468,298.899 102.886,298.899 103.906 M164.063 105.762 C 164.250 105.987,164.694 106.045,165.991 106.015 L 167.676 105.974 165.967 105.909 C 165.027 105.873,164.258 105.760,164.258 105.656 C 164.258 105.553,164.159 105.469,164.039 105.469 C 163.887 105.469,163.895 105.559,164.063 105.762 M177.291 105.610 C 177.637 105.653,178.253 105.654,178.658 105.611 C 179.063 105.569,178.779 105.534,178.027 105.533 C 177.275 105.532,176.944 105.567,177.291 105.610 M172.219 105.802 C 172.462 105.849,172.814 105.847,173.000 105.798 C 173.187 105.749,172.988 105.711,172.559 105.713 C 172.129 105.715,171.976 105.755,172.219 105.802 M157.568 106.388 C 157.810 106.434,158.206 106.434,158.447 106.388 C 158.689 106.341,158.491 106.303,158.008 106.303 C 157.524 106.303,157.327 106.341,157.568 106.388 M178.564 108.338 C 178.752 108.387,179.060 108.387,179.248 108.338 C 179.436 108.289,179.282 108.248,178.906 108.248 C 178.530 108.248,178.376 108.289,178.564 108.338 M166.458 108.539 C 166.755 108.583,167.194 108.582,167.434 108.536 C 167.675 108.490,167.432 108.453,166.895 108.454 C 166.357 108.456,166.161 108.494,166.458 108.539 M183.252 111.473 C 183.977 111.511,185.164 111.511,185.889 111.473 C 186.614 111.435,186.021 111.405,184.570 111.405 C 183.120 111.405,182.527 111.435,183.252 111.473 M193.994 111.463 C 194.182 111.512,194.490 111.512,194.678 111.463 C 194.866 111.414,194.712 111.373,194.336 111.373 C 193.960 111.373,193.806 111.414,193.994 111.463 M197.510 111.463 C 197.698 111.512,198.005 111.512,198.193 111.463 C 198.381 111.414,198.228 111.373,197.852 111.373 C 197.476 111.373,197.322 111.414,197.510 111.463 M200.483 125.684 C 200.483 133.525,200.507 136.705,200.537 132.749 C 200.567 128.794,200.567 122.378,200.537 118.491 C 200.507 114.605,200.483 117.842,200.483 125.684 M236.377 112.439 C 236.565 112.488,236.873 112.488,237.061 112.439 C 237.249 112.390,237.095 112.350,236.719 112.350 C 236.343 112.350,236.189 112.390,236.377 112.439 M126.257 119.824 C 126.257 122.617,126.285 123.733,126.318 122.303 C 126.351 120.873,126.351 118.588,126.318 117.225 C 126.284 115.862,126.257 117.031,126.257 119.824 M168.795 121.680 C 168.795 122.056,168.836 122.209,168.885 122.021 C 168.934 121.833,168.934 121.526,168.885 121.338 C 168.836 121.150,168.795 121.304,168.795 121.680 M216.294 125.781 C 216.294 128.198,216.322 129.187,216.357 127.979 C 216.391 126.770,216.391 124.792,216.357 123.584 C 216.322 122.375,216.294 123.364,216.294 125.781 M146.530 123.438 C 146.530 123.813,146.570 123.967,146.619 123.779 C 146.668 123.591,146.668 123.284,146.619 123.096 C 146.570 122.908,146.530 123.062,146.530 123.438 M133.025 124.131 C 133.041 124.893,133.043 124.896,133.215 124.321 C 133.322 123.962,133.316 123.667,133.198 123.550 C 133.075 123.426,133.014 123.630,133.025 124.131 M193.202 125.353 C 193.174 126.275,193.102 126.551,192.920 126.448 C 192.726 126.338,192.725 126.363,192.917 126.570 C 193.295 126.978,193.385 126.703,193.309 125.364 L 193.239 124.121 193.202 125.353 M179.559 126.074 C 179.560 126.934,179.594 127.261,179.635 126.801 C 179.677 126.342,179.676 125.639,179.634 125.239 C 179.592 124.839,179.558 125.215,179.559 126.074 M133.070 126.172 C 133.070 126.870,133.106 127.156,133.149 126.807 C 133.192 126.458,133.192 125.886,133.149 125.537 C 133.106 125.188,133.070 125.474,133.070 126.172 M156.133 128.320 C 156.133 129.985,156.163 130.667,156.200 129.834 C 156.236 129.001,156.236 127.639,156.200 126.807 C 156.163 125.974,156.133 126.655,156.133 128.320 M146.557 129.590 C 146.558 130.771,146.590 131.230,146.629 130.608 C 146.668 129.987,146.667 129.020,146.628 128.460 C 146.589 127.900,146.557 128.408,146.557 129.590 M163.916 132.520 C 163.919 132.949,163.959 133.102,164.005 132.859 C 164.052 132.616,164.050 132.265,164.001 132.078 C 163.952 131.891,163.914 132.090,163.916 132.520 M250.827 132.422 C 250.827 132.798,250.867 132.952,250.916 132.764 C 250.965 132.576,250.965 132.268,250.916 132.080 C 250.867 131.892,250.827 132.046,250.827 132.422 M250.864 138.184 C 250.864 140.439,250.893 141.336,250.927 140.175 C 250.962 139.014,250.962 137.169,250.927 136.073 C 250.892 134.978,250.864 135.928,250.864 138.184 M179.556 138.770 C 179.557 139.521,179.592 139.805,179.635 139.400 C 179.677 138.995,179.676 138.379,179.633 138.033 C 179.590 137.686,179.555 138.018,179.556 138.770 M153.390 140.137 C 153.389 141.104,153.422 141.524,153.463 141.070 C 153.504 140.617,153.504 139.826,153.464 139.313 C 153.424 138.799,153.390 139.170,153.390 140.137 M181.592 140.376 C 181.941 140.419,182.512 140.419,182.861 140.376 C 183.210 140.332,182.925 140.297,182.227 140.297 C 181.528 140.297,181.243 140.332,181.592 140.376 M212.942 140.375 C 213.239 140.419,213.678 140.418,213.919 140.372 C 214.159 140.326,213.916 140.289,213.379 140.290 C 212.842 140.292,212.645 140.330,212.942 140.375 M224.476 140.723 C 224.503 140.988,224.672 141.124,225.002 141.145 C 225.410 141.172,225.419 141.162,225.061 141.084 C 224.826 141.033,224.589 140.843,224.535 140.662 C 224.464 140.424,224.448 140.442,224.476 140.723 M262.188 144.434 C 262.189 146.152,262.219 146.829,262.255 145.938 C 262.291 145.047,262.291 143.640,262.254 142.813 C 262.218 141.986,262.188 142.715,262.188 144.434 M156.641 146.094 C 156.641 146.416,156.675 146.680,156.716 146.680 C 156.758 146.680,156.830 146.416,156.878 146.094 C 156.925 145.771,156.891 145.508,156.802 145.508 C 156.713 145.508,156.641 145.771,156.641 146.094 M193.213 146.825 C 194.368 146.860,196.257 146.860,197.412 146.825 C 198.567 146.791,197.622 146.763,195.313 146.763 C 193.003 146.763,192.058 146.791,193.213 146.825 M186.377 147.010 C 186.565 147.059,186.873 147.059,187.061 147.010 C 187.249 146.961,187.095 146.920,186.719 146.920 C 186.343 146.920,186.189 146.961,186.377 147.010 M209.427 147.015 C 209.723 147.060,210.163 147.059,210.403 147.012 C 210.643 146.966,210.400 146.929,209.863 146.931 C 209.326 146.932,209.130 146.970,209.427 147.015 M181.104 147.205 C 181.292 147.254,181.599 147.254,181.787 147.205 C 181.975 147.156,181.821 147.116,181.445 147.116 C 181.069 147.116,180.916 147.156,181.104 147.205 M164.017 148.579 C 164.368 148.623,164.896 148.622,165.189 148.577 C 165.483 148.532,165.195 148.497,164.551 148.498 C 163.906 148.499,163.666 148.536,164.017 148.579 " stroke="none" fill="#747475" fill-rule="evenodd"></path><path id="path4" d="M93.999 74.219 C 93.999 74.702,94.037 74.900,94.083 74.658 C 94.130 74.417,94.130 74.021,94.083 73.779 C 94.037 73.538,93.999 73.735,93.999 74.219 M90.704 76.953 C 90.704 78.618,90.734 79.299,90.770 78.467 C 90.807 77.634,90.807 76.272,90.770 75.439 C 90.734 74.607,90.704 75.288,90.704 76.953 M302.202 77.930 C 302.202 78.413,302.240 78.611,302.286 78.369 C 302.333 78.127,302.333 77.732,302.286 77.490 C 302.240 77.249,302.202 77.446,302.202 77.930 M302.207 80.664 C 302.207 81.255,302.244 81.497,302.288 81.201 C 302.333 80.906,302.333 80.422,302.288 80.127 C 302.244 79.832,302.207 80.073,302.207 80.664 M90.716 91.406 C 90.716 97.046,90.741 99.353,90.771 96.533 C 90.802 93.713,90.802 89.099,90.771 86.279 C 90.741 83.459,90.716 85.767,90.716 91.406 M223.295 83.594 C 223.295 84.077,223.333 84.275,223.380 84.033 C 223.427 83.792,223.427 83.396,223.380 83.154 C 223.333 82.913,223.295 83.110,223.295 83.594 M165.305 84.766 C 165.305 85.786,165.338 86.204,165.378 85.693 C 165.418 85.183,165.418 84.348,165.378 83.838 C 165.338 83.328,165.305 83.745,165.305 84.766 M101.039 88.477 C 101.039 89.175,101.075 89.460,101.118 89.111 C 101.161 88.762,101.161 88.191,101.118 87.842 C 101.075 87.493,101.039 87.778,101.039 88.477 M189.800 92.526 C 190.259 92.567,190.963 92.567,191.363 92.525 C 191.763 92.483,191.387 92.449,190.527 92.450 C 189.668 92.450,189.341 92.485,189.800 92.526 M185.305 98.771 C 185.548 98.818,185.900 98.816,186.086 98.767 C 186.273 98.718,186.074 98.680,185.645 98.682 C 185.215 98.684,185.062 98.724,185.305 98.771 M268.405 100.586 C 268.405 100.962,268.445 101.116,268.494 100.928 C 268.543 100.740,268.543 100.432,268.494 100.244 C 268.445 100.056,268.405 100.210,268.405 100.586 M90.700 107.129 C 90.700 108.418,90.732 108.920,90.770 108.244 C 90.808 107.569,90.808 106.514,90.769 105.901 C 90.730 105.287,90.699 105.840,90.700 107.129 M195.459 111.469 C 195.808 111.513,196.379 111.513,196.729 111.469 C 197.078 111.426,196.792 111.391,196.094 111.391 C 195.396 111.391,195.110 111.426,195.459 111.469 M198.877 111.468 C 199.172 111.513,199.656 111.513,199.951 111.468 C 200.247 111.423,200.005 111.387,199.414 111.387 C 198.823 111.387,198.582 111.423,198.877 111.468 M153.405 119.922 C 153.405 122.554,153.432 123.630,153.466 122.314 C 153.500 120.999,153.500 118.845,153.466 117.529 C 153.432 116.213,153.405 117.290,153.405 119.922 M193.220 123.340 C 193.221 123.877,193.259 124.073,193.304 123.777 C 193.349 123.480,193.348 123.040,193.302 122.800 C 193.255 122.560,193.218 122.803,193.220 123.340 M153.389 126.563 C 153.389 127.476,153.422 127.849,153.463 127.393 C 153.504 126.936,153.504 126.189,153.463 125.732 C 153.422 125.276,153.389 125.649,153.389 126.563 M163.732 126.465 C 163.733 127.109,163.770 127.350,163.813 126.998 C 163.857 126.647,163.856 126.120,163.811 125.827 C 163.767 125.533,163.731 125.820,163.732 126.465 M133.064 128.809 C 133.065 129.346,133.103 129.542,133.148 129.245 C 133.193 128.948,133.192 128.509,133.145 128.269 C 133.099 128.029,133.062 128.271,133.064 128.809 M224.069 129.492 C 224.069 129.868,224.109 130.022,224.158 129.834 C 224.207 129.646,224.207 129.338,224.158 129.150 C 224.109 128.962,224.069 129.116,224.069 129.492 M153.374 135.156 C 153.374 135.640,153.412 135.837,153.458 135.596 C 153.505 135.354,153.505 134.958,153.458 134.717 C 153.412 134.475,153.374 134.673,153.374 135.156 M133.081 137.598 C 133.081 138.779,133.113 139.238,133.152 138.616 C 133.191 137.994,133.191 137.028,133.152 136.467 C 133.112 135.907,133.080 136.416,133.081 137.598 M153.370 137.793 C 153.372 138.223,153.412 138.375,153.458 138.132 C 153.505 137.890,153.503 137.538,153.455 137.351 C 153.406 137.165,153.367 137.363,153.370 137.793 M250.831 142.871 C 250.833 143.301,250.873 143.454,250.919 143.211 C 250.966 142.968,250.964 142.616,250.915 142.429 C 250.867 142.243,250.828 142.441,250.831 142.871 M214.990 147.208 C 215.232 147.255,215.627 147.255,215.869 147.208 C 216.111 147.162,215.913 147.124,215.430 147.124 C 214.946 147.124,214.749 147.162,214.990 147.208 " stroke="none" fill="#7c7c7c" fill-rule="evenodd"></path></g></svg>